<?xml version="1.0" encoding="UTF-8"?>
<svg version="1.1" xmlns="http://www.w3.org/2000/svg" width="88" height="88">
<path d="M0 0 C29.04 0 58.08 0 88 0 C88 29.04 88 58.08 88 88 C58.96 88 29.92 88 0 88 C0 58.96 0 29.92 0 0 Z " fill="#FCFDFD" transform="translate(0,0)"/>
<path d="M0 0 C1.27617188 -0.03738281 2.55234375 -0.07476563 3.8671875 -0.11328125 C14.40575025 -0.21228654 14.40575025 -0.21228654 18.078125 2.7734375 C22.48184303 8.04839471 21.50883646 13.48503106 21.5625 20.125 C21.59150391 21.30578125 21.62050781 22.4865625 21.65039062 23.703125 C21.72186914 33.46819038 21.72186914 33.46819038 19.54296875 37.078125 C14.0402228 42.5902453 7.11662853 41.77478505 -0.1875 41.8125 C-1.30705078 41.84537109 -2.42660156 41.87824219 -3.58007812 41.91210938 C-12.7786704 41.97215953 -12.7786704 41.97215953 -16.47265625 38.97265625 C-21.21206273 33.56664372 -20.0109391 27.47509812 -20.0625 20.5625 C-20.09150391 19.27794922 -20.12050781 17.99339844 -20.15039062 16.66992188 C-20.15876953 15.43177734 -20.16714844 14.19363281 -20.17578125 12.91796875 C-20.19036377 11.78383545 -20.20494629 10.64970215 -20.2199707 9.48120117 C-19.64931468 5.70953539 -18.38476084 4.07904018 -15.75 1.375 C-11.20119063 -0.89940469 -4.99362732 0.05482026 0 0 Z " fill="#0B76AB" transform="translate(66.75,23.625)"/>
<path d="M0 0 C2.1480204 0.03970598 4.28986529 0.02069775 6.43798828 -0.00512695 C7.81170998 0.00243296 9.18541806 0.01338729 10.55908203 0.02807617 C11.79980469 0.04008057 13.04052734 0.05208496 14.31884766 0.06445312 C18.61208809 0.91800818 20.08445562 2.21393292 22.65283203 5.72729492 C23.29980469 8.86181641 23.29980469 8.86181641 23.31689453 12.34838867 C23.3265625 14.24621094 23.3265625 14.24621094 23.33642578 16.18237305 C23.31708984 17.49657227 23.29775391 18.81077148 23.27783203 20.16479492 C23.29716797 21.47512695 23.31650391 22.78545898 23.33642578 24.13549805 C23.28205999 34.81837589 23.28205999 34.81837589 21.05126953 38.59838867 C16.85163228 42.46489962 10.047594 41.52937679 4.73291016 41.3996582 C2.6577634 41.35240721 0.58775622 41.35854659 -1.48779297 41.37182617 C-12.72542435 41.25063603 -12.72542435 41.25063603 -17.34716797 36.72729492 C-19.62157266 32.17848555 -18.66734771 25.97092225 -18.72216797 20.97729492 C-18.75955078 19.70112305 -18.79693359 18.42495117 -18.83544922 17.11010742 C-18.93468717 6.54677838 -18.93468717 6.54677838 -16.79248047 2.87963867 C-12.50251172 -1.07553294 -5.4814547 -0.11359552 0 0 Z " fill="#14CA67" transform="translate(18.34716796875,23.272705078125)"/>
<path d="M0 0 C4.43041256 2.13609177 7.16159481 4.40398702 9 9 C9.75757439 14.68180789 9.26963497 19.15192056 6 24 C3.77528171 26.56179682 2.2165946 27.84630211 -1.1953125 28.27734375 C-7.15094506 28.36135738 -13.09204815 27.70392618 -19 27 C-21.28029505 11.60800843 -21.28029505 11.60800843 -18.3125 5.5625 C-12.93296689 -0.39860425 -7.80636218 -1.03167782 0 0 Z " fill="#F97F4F" transform="translate(73,30)"/>
<path d="M0 0 C4.24822374 0.47202486 6.19989709 2.96655518 9 6 C11.56451085 4.90092392 13.09554946 3.9015551 15.0625 1.875 C17 0 17 0 20 0 C19.54261927 4.68191549 17.80889606 6.63104174 14.4375 9.8125 C13.61121094 10.60269531 12.78492188 11.39289062 11.93359375 12.20703125 C11.29550781 12.79871094 10.65742188 13.39039063 10 14 C7.64956414 12.01929563 5.32177196 10.01418678 3 8 C2.175 7.29875 1.35 6.5975 0.5 5.875 C0.005 5.25625 -0.49 4.6375 -1 4 C-0.75 1.75 -0.75 1.75 0 0 Z " fill="#F3FCF7" transform="translate(11,33)"/>
<path d="M0 0 C0.99 0.33 1.98 0.66 3 1 C3.33 2.98 3.66 4.96 4 7 C4.66 7 5.32 7 6 7 C6.66 4.69 7.32 2.38 8 0 C8.99 0.33 9.98 0.66 11 1 C12.1875 3.5625 12.1875 3.5625 13 6 C13.99 4.02 14.98 2.04 16 0 C16.66 0 17.32 0 18 0 C17.40895235 4.84659077 16.02055843 8.60748167 14 13 C10.98672434 11.49336217 10.38943382 8.96833589 9 6 C8.01 8.31 7.02 10.62 6 13 C5.34 13 4.68 13 4 13 C3.32942113 11.2097939 2.6636531 9.41778511 2 7.625 C1.62875 6.62726562 1.2575 5.62953125 0.875 4.6015625 C0 2 0 2 0 0 Z " fill="#FFEDE6" transform="translate(58,39)"/>
<path d="M0 0 C0 5.28 0 10.56 0 16 C-1.32 15.67 -2.64 15.34 -4 15 C-4.08107583 13.06318839 -4.13922475 11.1254066 -4.1875 9.1875 C-4.22230469 8.10855469 -4.25710937 7.02960937 -4.29296875 5.91796875 C-4 3 -4 3 -2.55078125 1.11328125 C-1 0 -1 0 0 0 Z " fill="#F7FDFA" transform="translate(31,39)"/>
<path d="M0 0 C1.32 0.99 2.64 1.98 4 3 C4.390625 6.13671875 4.390625 6.13671875 4.25 9.6875 C4.21390625 10.86699219 4.1778125 12.04648437 4.140625 13.26171875 C4.09421875 14.16535156 4.0478125 15.06898437 4 16 C2.68 15.67 1.36 15.34 0 15 C0 10.05 0 5.1 0 0 Z " fill="#F8FDFB" transform="translate(10,39)"/>
</svg>
